<?xml version="1.0" encoding="UTF-8" standalone="no"?>
<svg
   width="20"
   height="17"
   viewBox="0 0 20 17"
   fill="none"
   id="air-conditioning"
   version="1.1"
   sodipodi:docname="air-conditioning.svg"
   inkscape:version="1.4.2 (f4327f4, 2025-05-13)"
   xmlns:inkscape="http://www.inkscape.org/namespaces/inkscape"
   xmlns:sodipodi="http://sodipodi.sourceforge.net/DTD/sodipodi-0.dtd"
   xmlns="http://www.w3.org/2000/svg"
   xmlns:svg="http://www.w3.org/2000/svg">
  <defs
     id="defs1" />
  <sodipodi:namedview
     id="namedview1"
     pagecolor="#505050"
     bordercolor="#eeeeee"
     borderopacity="1"
     inkscape:showpageshadow="0"
     inkscape:pageopacity="0"
     inkscape:pagecheckerboard="0"
     inkscape:deskcolor="#505050"
     showgrid="false"
     inkscape:zoom="33.125"
     inkscape:cx="10.007547"
     inkscape:cy="7.9849057"
     inkscape:window-width="1920"
     inkscape:window-height="1013"
     inkscape:window-x="-9"
     inkscape:window-y="-9"
     inkscape:window-maximized="1"
     inkscape:current-layer="air-conditioning" />
  <path
     style="baseline-shift:baseline;display:inline;overflow:visible;opacity:1;vector-effect:none;fill:currentColor;stroke-linecap:round;stroke-linejoin:round;enable-background:accumulate;stop-color:#000000;stop-opacity:1"
     d="M 3,0 C 2.2047408,0 1.4412471,0.3165505 0.8789063,0.8789062 0.3165505,1.4412471 0,2.2047408 0,3 V 7 C 0,7.795244 0.3165898,8.558747 0.8789063,9.121094 1.4412554,9.683488 2.2047534,10 3,10 h 2 10 2 C 17.795232,10 18.558739,9.683449 19.121094,9.121094 19.683449,8.558739 20,7.795232 20,7 V 3 C 20,2.2047534 19.683488,1.4412554 19.121094,0.8789062 18.558747,0.3165898 17.795244,0 17,0 Z m 0,2 h 14 c 0.265556,0 0.519178,0.1051252 0.707031,0.2929687 C 17.894837,2.4807596 18,2.7343866 18,3 V 7 C 18,7.265568 17.894876,7.519186 17.707031,7.707031 17.519186,7.894876 17.265568,8 17,8 H 16 V 6 C 16,5.4698427 15.788716,4.9606711 15.414062,4.5859375 15.039201,4.2110163 14.530057,4 14,4 H 6 C 5.4699433,4 4.9607276,4.2111673 4.5859375,4.5859375 4.2111673,4.9607276 4,5.4699433 4,6 V 8 H 3 C 2.7343866,8 2.4807596,7.894837 2.2929687,7.707031 2.1051252,7.519178 2,7.265556 2,7 V 3 C 2,2.7343992 2.1051645,2.4807679 2.2929687,2.2929687 2.4807679,2.1051645 2.7343992,2 3,2 Z m 3,4 h 8 V 8 H 6 Z m 0,5 A 1,1 0 0 0 5,12 C 5,12.530752 4.7893845,13.038747 4.4140625,13.414062 4.0387032,13.789415 3.5307932,14 3,14 a 1,1 0 0 0 -1,1 1,1 0 0 0 1,1 C 4.0605068,16 5.0782643,15.577972 5.828125,14.828125 6.578023,14.07824 7,13.060448 7,12 A 1,1 0 0 0 6,11 Z m 4,0 a 1,1 0 0 0 -1,1 v 4 a 1,1 0 0 0 1,1 1,1 0 0 0 1,-1 v -4 a 1,1 0 0 0 -1,-1 z m 4,0 a 1,1 0 0 0 -1,1 c 0,1.060473 0.422004,2.078254 1.171875,2.828125 C 14.921746,15.577996 15.939527,16 17,16 a 1,1 0 0 0 1,-1 1,1 0 0 0 -1,-1 C 16.469273,14 15.961266,13.789391 15.585937,13.414062 15.210609,13.038734 15,12.530727 15,12 a 1,1 0 0 0 -1,-1 z"
     id="path1" />
</svg>
