<?xml version="1.0" encoding="UTF-8" standalone="no"?>
<svg
   width="20"
   height="20"
   viewBox="0 0 20 20"
   fill="none"
   id="armchair"
   version="1.1"
   sodipodi:docname="armchair.svg"
   inkscape:version="1.4.2 (f4327f4, 2025-05-13)"
   xmlns:inkscape="http://www.inkscape.org/namespaces/inkscape"
   xmlns:sodipodi="http://sodipodi.sourceforge.net/DTD/sodipodi-0.dtd"
   xmlns="http://www.w3.org/2000/svg"
   xmlns:svg="http://www.w3.org/2000/svg">
  <defs
     id="defs1" />
  <sodipodi:namedview
     id="namedview1"
     pagecolor="#505050"
     bordercolor="#eeeeee"
     borderopacity="1"
     inkscape:showpageshadow="0"
     inkscape:pageopacity="0"
     inkscape:pagecheckerboard="0"
     inkscape:deskcolor="#505050"
     inkscape:zoom="33.125"
     inkscape:cx="10.007547"
     inkscape:cy="10.007547"
     inkscape:window-width="1920"
     inkscape:window-height="1013"
     inkscape:window-x="-9"
     inkscape:window-y="-9"
     inkscape:window-maximized="1"
     inkscape:current-layer="armchair" />
  <path
     style="baseline-shift:baseline;display:inline;overflow:visible;opacity:1;vector-effect:none;fill:currentColor;stroke-linecap:round;stroke-linejoin:round;enable-background:accumulate;stop-color:#000000;stop-opacity:1"
     d="M 6,0 C 4.9395183,0 3.9217489,0.4220011 3.171875,1.171875 2.4220011,1.9217489 2,2.9395183 2,4 V 8.414063 C 1.6152911,8.563456 1.1761615,8.581627 0.8789063,8.878906 0.3165898,9.441253 0,10.204756 0,11 v 4 c 0,0.795244 0.3165898,1.558747 0.8789063,2.121094 C 1.4412554,17.683488 2.2047534,18 3,18 v 1 a 1,1 0 0 0 1,1 1,1 0 0 0 1,-1 v -1 h 10 v 1 a 1,1 0 0 0 1,1 1,1 0 0 0 1,-1 v -1 c 0.795232,0 1.558739,-0.316551 2.121094,-0.878906 C 19.683449,16.558739 20,15.795232 20,15 V 11 C 20,10.204768 19.683449,9.441261 19.121094,8.878906 18.823836,8.581648 18.3847,8.563454 18,8.414063 V 4 C 18,2.9394932 17.577972,1.9217357 16.828125,1.171875 16.07824,0.421977 15.060448,0 14,0 Z m 0,2 h 8 c 0.530752,0 1.038747,0.2106155 1.414062,0.5859375 C 15.789415,2.9612968 16,3.4692068 16,4 V 8.414063 C 15.6153,8.563454 15.176164,8.581648 14.878906,8.878906 14.316551,9.441261 14,10.204768 14,11 v 1 H 6 V 11 C 6,10.204756 5.6834102,9.441253 5.1210937,8.878906 4.8238385,8.581627 4.3847089,8.563456 4,8.414063 V 4 C 4,3.4691817 4.2105914,2.9612836 4.5859375,2.5859375 4.9612836,2.2105914 5.4691817,2 6,2 Z m -3,8 c 0.2656134,0 0.5192404,0.105163 0.7070312,0.292969 C 3.8948748,10.480822 4,10.734444 4,11 v 2 a 1.0001,1.0001 0 0 0 1,1 h 10 a 1.0001,1.0001 0 0 0 1,-1 v -2 c 0,-0.265568 0.105124,-0.519186 0.292969,-0.707031 C 16.480814,10.105124 16.734432,10 17,10 c 0.265568,0 0.519186,0.105124 0.707031,0.292969 C 17.894876,10.480814 18,10.734432 18,11 v 4 c 0,0.265568 -0.105124,0.519186 -0.292969,0.707031 C 17.519186,15.894876 17.265568,16 17,16 H 16 4 3 C 2.7343866,16 2.4807596,15.894837 2.2929687,15.707031 2.1051252,15.519178 2,15.265556 2,15 V 11 C 2,10.734444 2.1051252,10.480822 2.2929687,10.292969 2.4807596,10.105163 2.7343866,10 3,10 Z"
     id="path1" />
</svg>
