<?xml version="1.0" encoding="UTF-8" standalone="no"?>
<svg
   width="18"
   height="20"
   viewBox="0 0 18 20"
   fill="none"
   id="calendar"
   version="1.1"
   sodipodi:docname="calendar.svg"
   inkscape:version="1.4.2 (f4327f4, 2025-05-13)"
   xmlns:inkscape="http://www.inkscape.org/namespaces/inkscape"
   xmlns:sodipodi="http://sodipodi.sourceforge.net/DTD/sodipodi-0.dtd"
   xmlns="http://www.w3.org/2000/svg"
   xmlns:svg="http://www.w3.org/2000/svg">
  <defs
     id="defs1" />
  <sodipodi:namedview
     id="namedview1"
     pagecolor="#505050"
     bordercolor="#eeeeee"
     borderopacity="1"
     inkscape:showpageshadow="0"
     inkscape:pageopacity="0"
     inkscape:pagecheckerboard="0"
     inkscape:deskcolor="#505050"
     inkscape:zoom="33.125"
     inkscape:cx="9.0113208"
     inkscape:cy="10.007547"
     inkscape:window-width="1920"
     inkscape:window-height="1013"
     inkscape:window-x="-9"
     inkscape:window-y="-9"
     inkscape:window-maximized="1"
     inkscape:current-layer="calendar" />
  <path
     style="baseline-shift:baseline;display:inline;overflow:visible;opacity:1;vector-effect:none;fill:currentColor;stroke-linecap:round;stroke-linejoin:round;enable-background:accumulate;stop-color:#000000;stop-opacity:1"
     d="M 5,0 A 1,1 0 0 0 4,1 V 2 H 3 C 2.2047408,2 1.4412471,2.3165505 0.8789063,2.8789062 0.3165505,3.4412471 0,4.2047408 0,5 v 4 8 c 0,0.795244 0.3165898,1.558747 0.8789063,2.121094 C 1.4412554,19.683488 2.2047534,20 3,20 h 12 c 0.795232,0 1.558739,-0.316551 2.121094,-0.878906 C 17.683449,18.558739 18,17.795232 18,17 V 9 5 C 18,4.2047534 17.683488,3.4412554 17.121094,2.8789062 16.558747,2.3165898 15.795244,2 15,2 H 14 V 1 A 1,1 0 0 0 13,0 1,1 0 0 0 12,1 V 2 H 6 V 1 A 1,1 0 0 0 5,0 Z M 3,4 H 4 V 5 A 1,1 0 0 0 5,6 1,1 0 0 0 6,5 V 4 h 6 v 1 a 1,1 0 0 0 1,1 1,1 0 0 0 1,-1 V 4 h 1 c 0.265556,0 0.519178,0.1051252 0.707031,0.2929687 C 15.894837,4.4807596 16,4.7343866 16,5 V 8 H 2 V 5 C 2,4.7343992 2.1051645,4.4807679 2.2929687,4.2929687 2.4807679,4.1051645 2.7343992,4 3,4 Z m -1,6 h 14 v 7 c 0,0.265568 -0.105124,0.519186 -0.292969,0.707031 C 15.519186,17.894876 15.265568,18 15,18 H 3 C 2.7343866,18 2.4807596,17.894837 2.2929687,17.707031 2.1051252,17.519178 2,17.265556 2,17 Z m 6,2 a 1,1 0 0 0 -1,1 1,1 0 0 0 1,1 v 2 a 1,1 0 0 0 1,1 1,1 0 0 0 1,-1 V 13 A 1.0001,1.0001 0 0 0 9,12 Z"
     id="path1" />
</svg>
