<?xml version="1.0" encoding="UTF-8" standalone="no"?>
<svg
   width="20"
   height="20"
   viewBox="0 0 20 20"
   fill="none"
   id="clock-hour-3"
   version="1.1"
   sodipodi:docname="clock-hour-3.svg"
   inkscape:version="1.4.2 (f4327f4, 2025-05-13)"
   xmlns:inkscape="http://www.inkscape.org/namespaces/inkscape"
   xmlns:sodipodi="http://sodipodi.sourceforge.net/DTD/sodipodi-0.dtd"
   xmlns="http://www.w3.org/2000/svg"
   xmlns:svg="http://www.w3.org/2000/svg">
  <defs
     id="defs1" />
  <sodipodi:namedview
     id="namedview1"
     pagecolor="#505050"
     bordercolor="#eeeeee"
     borderopacity="1"
     inkscape:showpageshadow="0"
     inkscape:pageopacity="0"
     inkscape:pagecheckerboard="0"
     inkscape:deskcolor="#505050"
     showgrid="false"
     inkscape:zoom="33.125"
     inkscape:cx="10.007547"
     inkscape:cy="10.007547"
     inkscape:window-width="1920"
     inkscape:window-height="1013"
     inkscape:window-x="-9"
     inkscape:window-y="-9"
     inkscape:window-maximized="1"
     inkscape:current-layer="clock-hour-3" />
  <path
     style="baseline-shift:baseline;display:inline;overflow:visible;opacity:1;vector-effect:none;fill:currentColor;stroke-linecap:round;stroke-linejoin:round;enable-background:accumulate;stop-color:#000000;stop-opacity:1"
     d="M 10,0 C 8.686792,0 7.3870718,0.2591792 6.1738281,0.7617188 4.96059,1.2642671 3.8582679,2.0011071 2.9296875,2.9296875 2.0011071,3.8582679 1.2642671,4.96059 0.7617188,6.1738281 0.2591792,7.3870718 0,8.686792 0,10 c 0,1.313208 0.2591921,2.612881 0.7617188,3.826172 0.5025523,1.213214 1.2394297,2.315524 2.1679687,3.24414 0.9285839,0.928551 2.0309169,1.665427 3.2441406,2.167969 C 7.387071,19.740832 8.686786,20 10,20 c 1.313214,0 2.612882,-0.259181 3.826172,-0.761719 1.2132,-0.502546 2.31552,-1.239459 3.24414,-2.167969 0.92851,-0.92862 1.665423,-2.03094 2.167969,-3.24414 C 19.740819,12.612882 20,11.313214 20,10 20,8.686786 19.740832,7.387071 19.238281,6.1738281 18.735739,4.9606044 17.998863,3.8582714 17.070312,2.9296875 16.141696,2.0011485 15.039386,1.2642711 13.826172,0.7617188 12.612881,0.2591921 11.313208,0 10,0 Z m 0,2 c 1.050592,0 2.09179,0.2073217 3.0625,0.609375 0.969988,0.4020331 1.851153,0.9918405 2.59375,1.734375 0.742849,0.7428761 1.332317,1.6250668 1.734375,2.5957031 C 17.792675,7.9100703 18,8.949414 18,10 c 0,1.049942 -0.207798,2.090347 -0.609375,3.060547 -0.402054,0.9706 -0.991484,1.852723 -1.734375,2.595703 -0.74298,0.742891 -1.625103,1.332321 -2.595703,1.734375 C 12.090347,17.792202 11.049942,18 10,18 8.949414,18 7.9100703,17.792675 6.9394531,17.390625 5.9688168,16.988567 5.0866261,16.399099 4.34375,15.65625 3.6012155,14.913653 3.0114081,14.032488 2.609375,13.0625 v -0.002 C 2.2078076,12.090348 2,11.049947 2,10 2,8.949408 2.2073345,7.9100694 2.609375,6.9394531 3.0114267,5.9688313 3.6008704,5.0866296 4.34375,4.34375 5.0866296,3.6008704 5.9688313,3.0114267 6.9394531,2.609375 7.9100694,2.2073345 8.949408,2 10,2 Z m 0,2 A 1,1 0 0 0 9,5 v 5 a 1.0001,1.0001 0 0 0 1,1 h 3.5 a 1,1 0 0 0 1,-1 1,1 0 0 0 -1,-1 H 11 V 5 A 1,1 0 0 0 10,4 Z"
     id="path1" />
</svg>
