<?xml version="1.0" encoding="UTF-8" standalone="no"?>
<svg
   width="19.998266"
   height="20.000834"
   viewBox="0 0 19.998266 20.000834"
   fill="none"
   id="coffee"
   version="1.1"
   sodipodi:docname="coffee.svg"
   inkscape:version="1.4.2 (f4327f4, 2025-05-13)"
   xmlns:inkscape="http://www.inkscape.org/namespaces/inkscape"
   xmlns:sodipodi="http://sodipodi.sourceforge.net/DTD/sodipodi-0.dtd"
   xmlns="http://www.w3.org/2000/svg"
   xmlns:svg="http://www.w3.org/2000/svg">
  <defs
     id="defs1" />
  <sodipodi:namedview
     id="namedview1"
     pagecolor="#505050"
     bordercolor="#eeeeee"
     borderopacity="1"
     inkscape:showpageshadow="0"
     inkscape:pageopacity="0"
     inkscape:pagecheckerboard="0"
     inkscape:deskcolor="#505050"
     showgrid="false"
     inkscape:zoom="33.125"
     inkscape:cx="10.007547"
     inkscape:cy="10.007547"
     inkscape:window-width="1920"
     inkscape:window-height="1013"
     inkscape:window-x="-9"
     inkscape:window-y="-9"
     inkscape:window-maximized="1"
     inkscape:current-layer="coffee" />
  <path
     style="baseline-shift:baseline;display:inline;overflow:visible;opacity:1;vector-effect:none;fill:currentColor;stroke-linecap:round;stroke-linejoin:round;enable-background:accumulate;stop-color:#000000;stop-opacity:1"
     d="M 5.4160156,0.18833322 C 4.9676652,0.51013982 4.6042215,0.93690732 4.3574219,1.4305207 h 0.00195 C 4.1158692,1.9175322 3.9960485,2.4566071 4.0039062,3.0008332 3.9960485,3.5450593 4.1158692,4.0841342 4.359375,4.5711457 H 4.357425 C 4.6042215,5.0647591 4.9676652,5.4915266 5.4160156,5.8133332 A 1,1 0 0 0 6.8125,5.5848176 1,1 0 0 0 6.5839844,4.1883332 C 6.3993348,4.0557998 6.2481248,3.879901 6.1464844,3.6766144 6.0448298,3.4733053 5.9952392,3.2495646 6,3.0223176 a 1.0001,1.0001 0 0 0 0,-0.042969 c -0.00476,-0.227247 0.04483,-0.4509877 0.1464844,-0.6542969 0.1016404,-0.2032865 0.2528504,-0.3791853 0.4375,-0.5117187 A 1,1 0 0 0 6.8125,0.41684882 1,1 0 0 0 5.4160156,0.18833322 Z m 4.0000004,0 C 8.967641,0.51015722 8.6062,0.93708292 8.359375,1.4305207 a 1.0001,1.0001 0 0 0 -0.002,0 C 8.113988,1.9174731 7.9959944,2.4565126 8.003906,3.0008332 7.995996,3.5451538 8.113988,4.0841933 8.357422,4.5711457 a 1.0001,1.0001 0 0 0 0.002,0 C 8.6062,5.0645835 8.967641,5.4915092 9.416016,5.8133332 A 1,1 0 0 0 10.8125,5.5848176 1,1 0 0 0 10.583984,4.1883332 C 10.399359,4.0558172 10.248259,3.8800766 10.146484,3.6766144 10.044818,3.4732474 9.995218,3.2494637 10,3.0223176 a 1.0001,1.0001 0 0 0 0,-0.042969 c -0.00478,-0.2271459 0.04482,-0.4509296 0.146484,-0.6542967 0.101775,-0.2034621 0.252875,-0.3792027 0.4375,-0.5117187 A 1,1 0 0 0 10.8125,0.41684882 1,1 0 0 0 9.416016,0.18833322 Z M 1,7.0008332 a 1.0001,1.0001 0 0 0 -1,1 v 4.9999998 c 0,1.856132 0.7382942,3.636755 2.0507812,4.949219 C 3.3632763,19.26264 5.1438851,20.000833 7,20.000833 h 2 c 1.856115,0 3.636744,-0.73819 4.949219,-2.050781 0.612933,-0.612879 1.072322,-1.341957 1.417968,-2.119141 0.291556,0.04813 0.568039,0.179556 0.865235,0.162109 0.65391,-0.03839 1.288224,-0.237079 1.847656,-0.578125 0.559126,-0.341073 1.02568,-0.813151 1.359375,-1.376953 0.33352,-0.563863 0.524959,-1.201035 0.554688,-1.855468 0.02974,-0.654588 -0.101701,-1.306757 -0.382813,-1.898438 C 19.330158,9.6923652 18.907246,9.1782982 18.380859,8.7879422 17.854569,8.3975252 17.239566,8.1432072 16.591797,8.0457552 16.392852,8.0158252 16.19989,8.1021772 16,8.1023962 v -0.101563 a 1.0001,1.0001 0 0 0 -1,-1 z m 1,2 H 14 V 10.412942 C 13.234349,10.153641 12.405344,9.9932092 11.5,10.002786 9.89934,9.9858542 8.450253,10.388691 7.3886719,11.209817 6.7930216,11.670549 5.7520933,12.015651 4.5117187,12.000833 a 1.0001,1.0001 0 0 0 -0.023437,0 C 3.4490655,12.013248 2.614472,11.744582 2,11.395364 Z m 14.294922,1.0214838 c 0.324031,0.04875 0.631421,0.175911 0.894531,0.371094 0.263013,0.195044 0.474605,0.452118 0.615234,0.748047 0.140689,0.296119 0.206271,0.622006 0.191407,0.949219 -0.01487,0.327367 -0.110463,0.645598 -0.277344,0.927734 -0.166905,0.281998 -0.399813,0.518727 -0.679688,0.689453 -0.279767,0.170555 -0.596738,0.269857 -0.923828,0.289063 -0.104061,0.0061 -0.199673,-0.0466 -0.302734,-0.05664 C 15.85697,13.621617 16,13.326232 16,13.000833 v -2.951172 c 0.09966,-7.1e-5 0.195776,-0.04226 0.294922,-0.02734 z m -4.806641,1.978516 a 1.0001,1.0001 0 0 0 0.02344,0 C 12.550935,11.988418 13.385528,12.257084 14,12.606302 v 0.394531 c 0,1.326485 -0.526835,2.597231 -1.464844,3.535156 C 11.597231,17.473998 10.326485,18.000833 9,18.000833 H 7 c -1.3264851,0 -2.5972113,-0.526832 -3.5351563,-1.464844 C 2.6866836,15.757843 2.2749685,14.731319 2.1289062,13.653177 2.8577981,13.88103 3.6504022,14.007867 4.5,13.99888 c 1.6006596,0.01693 3.0497469,-0.385905 4.111328,-1.207031 0.59565,-0.460732 1.636579,-0.805834 2.876953,-0.791016 z"
     id="path1" />
</svg>
