<?xml version="1.0" encoding="UTF-8" standalone="no"?>
<svg
   width="22.019552"
   height="16.999279"
   viewBox="0 0 22.019552 16.999279"
   fill="none"
   id="device-gamepad-2"
   version="1.1"
   sodipodi:docname="device-gamepad-2.svg"
   inkscape:version="1.4.2 (f4327f4, 2025-05-13)"
   xmlns:inkscape="http://www.inkscape.org/namespaces/inkscape"
   xmlns:sodipodi="http://sodipodi.sourceforge.net/DTD/sodipodi-0.dtd"
   xmlns="http://www.w3.org/2000/svg"
   xmlns:svg="http://www.w3.org/2000/svg">
  <defs
     id="defs1" />
  <sodipodi:namedview
     id="namedview1"
     pagecolor="#505050"
     bordercolor="#eeeeee"
     borderopacity="1"
     inkscape:showpageshadow="0"
     inkscape:pageopacity="0"
     inkscape:pagecheckerboard="0"
     inkscape:deskcolor="#505050"
     showgrid="false"
     inkscape:zoom="33.125"
     inkscape:cx="10.973585"
     inkscape:cy="8.0150943"
     inkscape:window-width="1920"
     inkscape:window-height="1013"
     inkscape:window-x="-9"
     inkscape:window-y="-9"
     inkscape:window-maximized="1"
     inkscape:current-layer="device-gamepad-2" />
  <path
     style="baseline-shift:baseline;display:inline;overflow:visible;opacity:1;vector-effect:none;fill:currentColor;stroke-linecap:round;stroke-linejoin:round;enable-background:accumulate;stop-color:#000000;stop-opacity:1"
     d="M 7.5818702,1.637386e-7 C 6.1948578,-3.2383626e-4 4.8499612,0.48020096 3.7771827,1.3593752 2.7044134,2.2385517 1.9692376,3.4622125 1.6971046,4.8222658 L 0.06429201,12.996094 c -0.14029898,0.701495 -0.049771,1.429238 0.2597657,2.074218 0.309514,0.644965 0.82000659,1.172568 1.45507809,1.501954 0.6349267,0.32931 1.3607597,0.444683 2.0664062,0.326171 C 4.55117,16.780072 5.2005537,16.43471 5.6931983,15.916016 L 9.4119488,12 h 3.1406252 l 3.77539,3.972656 c 0.491653,0.517326 1.137956,0.861536 1.841797,0.980469 0.70374,0.118916 1.426159,0.0066 2.060547,-0.320313 a 1.0001,1.0001 0 0 0 0.002,0 c 0.634393,-0.327021 1.14561,-0.851932 1.457031,-1.49414 0.311403,-0.64217 0.405683,-1.367662 0.269531,-2.06836 L 20.359214,4.8378908 a 1,1 0 0 0 -0.125,-0.083984 C 19.991678,3.6380096 19.544253,2.5776 18.724448,1.7578127 17.599504,0.63288036 16.073188,1.637386e-7 14.482261,1.637386e-7 Z m 0,2.0000000362614 h 6.9003908 c 1.061273,0 2.077669,0.4214273 2.828125,1.171875 0.750434,0.7504179 1.171875,1.7668857 1.171875,2.828125 0,1.061263 -0.421484,2.077814 -1.171875,2.828125 C 16.559926,9.5785852 15.543524,10 14.482261,10 H 8.9822608 a 1.0001,1.0001 0 0 0 -0.7246094,0.310547 l -4.015625,4.228515 C 4.047791,14.743568 3.793476,14.879146 3.5154639,14.925781 3.2374705,14.97247 2.9514441,14.926764 2.7010108,14.796875 2.4507223,14.667061 2.248798,14.459314 2.1267921,14.205078 2.0047884,13.950859 1.9699286,13.665177 2.0252296,13.388672 L 3.658042,5.214844 C 3.839529,4.3078173 4.3293301,3.4925737 5.0447608,2.9062502 5.7602023,2.3199244 6.6568626,1.9997842 7.5818702,2.0000002 Z m -0.5996094,2 a 1,1 0 0 0 -1,1 1,1 0 0 0 -1,1 1,1 0 0 0 1,1 1,1 0 0 0 1,1 1,1 0 0 0 1,-1 1,1 0 0 0 1,-1 1,1 0 0 0 -1,-1 1,1 0 0 0 -1,-1 z m 6.0000002,1 a 1,1 0 0 0 -1,1 1,1 0 0 0 1,1 h 2 a 1,1 0 0 0 1,-1 1,1 0 0 0 -1,-1 z m 6.244141,4.492188 0.769531,3.9589838 c 0.05365,0.276102 0.01537,0.563176 -0.107422,0.816406 -0.122779,0.253192 -0.324012,0.458912 -0.574219,0.587891 -0.250012,0.12885 -0.535039,0.171884 -0.8125,0.125 -0.277359,-0.04687 -0.530662,-0.180691 -0.724609,-0.384766 l -2.597656,-2.734375 c 1.32633,-0.160115 2.590728,-0.664947 3.544921,-1.61914 0.216929,-0.216906 0.322657,-0.5056278 0.501954,-0.7499998 z"
     id="path1" />
</svg>
