<?xml version="1.0" encoding="UTF-8" standalone="no"?>
<svg
   width="19"
   height="19"
   viewBox="0 0 19 19"
   fill="none"
   id="edit"
   version="1.1"
   sodipodi:docname="edit.svg"
   inkscape:version="1.4.2 (f4327f4, 2025-05-13)"
   xmlns:inkscape="http://www.inkscape.org/namespaces/inkscape"
   xmlns:sodipodi="http://sodipodi.sourceforge.net/DTD/sodipodi-0.dtd"
   xmlns="http://www.w3.org/2000/svg"
   xmlns:svg="http://www.w3.org/2000/svg">
  <defs
     id="defs1" />
  <sodipodi:namedview
     id="namedview1"
     pagecolor="#505050"
     bordercolor="#eeeeee"
     borderopacity="1"
     inkscape:showpageshadow="0"
     inkscape:pageopacity="0"
     inkscape:pagecheckerboard="0"
     inkscape:deskcolor="#505050"
     showgrid="false"
     inkscape:zoom="33.125"
     inkscape:cx="9.0113208"
     inkscape:cy="10.007547"
     inkscape:window-width="1920"
     inkscape:window-height="1013"
     inkscape:window-x="-9"
     inkscape:window-y="-9"
     inkscape:window-maximized="1"
     inkscape:current-layer="edit" />
  <path
     style="baseline-shift:baseline;display:inline;overflow:visible;opacity:1;vector-effect:none;fill:currentColor;stroke-linecap:round;stroke-linejoin:round;enable-background:accumulate;stop-color:#000000;stop-opacity:1"
     d="m 15.900391,0 c -0.821824,0 -1.61225,0.3270195 -2.19336,0.9082031 l -1.388672,1.3847656 a 1,1 0 0 0 -0.02539,0 1,1 0 0 0 -0.01758,0.041016 L 5.2949219,9.291016 A 1.0001,1.0001 0 0 0 5,10 v 3 a 1.0001,1.0001 0 0 0 1,1 h 3 a 1.0001,1.0001 0 0 0 0.708984,-0.294922 l 6.97461,-6.9980467 a 1,1 0 0 0 0.02344,0 1,1 0 0 0 0.01758,-0.041016 L 18.091797,5.2929687 C 18.672807,4.7118845 19,3.9214702 19,3.0996094 19,2.2777433 18.672818,1.4892832 18.091797,0.9082031 17.510687,0.3270195 16.722214,0 15.900391,0 Z m 0,2 c 0.292176,0 0.570853,0.1157492 0.777343,0.3222656 C 16.884313,2.5288656 17,2.8074955 17,3.0996094 17,3.3917085 16.884324,3.6722905 16.677734,3.8789062 a 1.0001,1.0001 0 0 0 -0.002,0 l -0.689453,0.6933594 -1.558594,-1.5585937 0.69336,-0.6894532 a 1.0001,1.0001 0 0 0 0.002,-0.00195 C 15.329537,2.1157492 15.608214,2 15.900391,2 Z M 3,4 C 2.2047408,4 1.441246,4.3165665 0.8789063,4.8789062 0.3165678,5.4412447 0,6.2047358 0,7 v 9 c 0,0.795244 0.3165898,1.558747 0.8789063,2.121094 C 1.4412554,18.683488 2.2047534,19 3,19 h 9 c 0.795232,0 1.558739,-0.316551 2.121094,-0.878906 C 14.683449,17.558739 15,16.795232 15,16 v -1 a 1,1 0 0 0 -1,-1 1,1 0 0 0 -1,1 v 1 c 0,0.265568 -0.105124,0.519186 -0.292969,0.707031 C 12.519186,16.894876 12.265568,17 12,17 H 3 C 2.7343866,17 2.4807596,16.894837 2.2929687,16.707031 2.1051252,16.519178 2,16.265556 2,16 V 7 C 2,6.7343842 2.1051472,6.4807903 2.2929687,6.2929688 2.480769,6.1051685 2.7343992,6 3,6 H 4 A 1,1 0 0 0 5,5 1,1 0 0 0 4,4 Z m 10.011719,0.4257812 1.5625,1.5625 L 8.583984,12 H 7 v -1.583984 z"
     id="path1" />
</svg>
