<?xml version="1.0" encoding="UTF-8" standalone="no"?>
<svg
   width="18"
   height="18"
   viewBox="0 0 18 18"
   fill="none"
   id="headphones"
   version="1.1"
   sodipodi:docname="headphones.svg"
   inkscape:version="1.4.2 (f4327f4, 2025-05-13)"
   xmlns:inkscape="http://www.inkscape.org/namespaces/inkscape"
   xmlns:sodipodi="http://sodipodi.sourceforge.net/DTD/sodipodi-0.dtd"
   xmlns="http://www.w3.org/2000/svg"
   xmlns:svg="http://www.w3.org/2000/svg">
  <defs
     id="defs1" />
  <sodipodi:namedview
     id="namedview1"
     pagecolor="#505050"
     bordercolor="#eeeeee"
     borderopacity="1"
     inkscape:showpageshadow="0"
     inkscape:pageopacity="0"
     inkscape:pagecheckerboard="0"
     inkscape:deskcolor="#505050"
     showgrid="false"
     inkscape:zoom="33.125"
     inkscape:cx="9.0113208"
     inkscape:cy="9.0113208"
     inkscape:window-width="1920"
     inkscape:window-height="1013"
     inkscape:window-x="-9"
     inkscape:window-y="-9"
     inkscape:window-maximized="1"
     inkscape:current-layer="headphones" />
  <path
     style="baseline-shift:baseline;display:inline;overflow:visible;opacity:1;vector-effect:none;fill:currentColor;stroke-linecap:round;stroke-linejoin:round;enable-background:accumulate;stop-color:#000000;stop-opacity:1"
     d="M 9,0 C 6.6134389,0 4.3242744,0.9491519 2.6367187,2.6367187 0.9491519,4.3242744 0,6.6134389 0,9 v 3 3 c 0,0.795244 0.3165898,1.558747 0.8789063,2.121094 C 1.4412554,17.683488 2.2047534,18 3,18 H 4 C 4.7952466,18 5.5587446,17.683488 6.1210938,17.121094 6.6834102,16.558747 7,15.795244 7,15 V 12 C 7,11.204756 6.6834102,10.441253 6.1210938,9.878906 5.5587446,9.316512 4.7952466,9 4,9 H 3 C 2.6251172,9 2.3430856,9.280833 2,9.414063 V 9 C 2,7.143101 2.7377481,5.3638056 4.0507812,4.0507812 5.3638056,2.7377481 7.143101,2 9,2 10.856865,2 12.636194,2.7377564 13.949219,4.0507812 15.262175,5.3638161 16,7.143117 16,9 V 9.414063 C 15.656923,9.280834 15.374876,9 15,9 H 14 C 13.204768,9 12.441261,9.316551 11.878906,9.878906 11.316551,10.441261 11,11.204768 11,12 v 3 c 0,0.795232 0.316551,1.558739 0.878906,2.121094 C 12.441261,17.683449 13.204768,18 14,18 h 1 c 0.795232,0 1.558739,-0.316551 2.121094,-0.878906 C 17.683449,16.558739 18,15.795232 18,15 V 12 9 C 18,6.6134232 17.050725,4.3242639 15.363281,2.6367187 13.675706,0.9491436 11.386535,0 9,0 Z M 3,11 h 1 c 0.2656134,0 0.5192404,0.105163 0.7070312,0.292969 C 4.8948748,11.480822 5,11.734444 5,12 v 3 C 5,15.265556 4.8948748,15.519178 4.7070312,15.707031 4.5192404,15.894837 4.2656134,16 4,16 H 3 C 2.7343866,16 2.4807596,15.894837 2.2929687,15.707031 2.1051252,15.519178 2,15.265556 2,15 V 12 C 2,11.734444 2.1051252,11.480822 2.2929687,11.292969 2.4807596,11.105163 2.7343866,11 3,11 Z m 11,0 h 1 c 0.265568,0 0.519186,0.105124 0.707031,0.292969 C 15.894876,11.480814 16,11.734432 16,12 v 3 c 0,0.265568 -0.105124,0.519186 -0.292969,0.707031 C 15.519186,15.894876 15.265568,16 15,16 H 14 C 13.734432,16 13.480814,15.894876 13.292969,15.707031 13.105124,15.519186 13,15.265568 13,15 v -3 c 0,-0.265568 0.105124,-0.519186 0.292969,-0.707031 C 13.480814,11.105124 13.734432,11 14,11 Z"
     id="path1" />
</svg>
