<?xml version="1.0" encoding="UTF-8" standalone="no"?>
<svg
   width="16"
   height="21"
   viewBox="0 0 16 21"
   fill="none"
   id="microphone"
   version="1.1"
   sodipodi:docname="microphone.svg"
   inkscape:version="1.4.2 (f4327f4, 2025-05-13)"
   xmlns:inkscape="http://www.inkscape.org/namespaces/inkscape"
   xmlns:sodipodi="http://sodipodi.sourceforge.net/DTD/sodipodi-0.dtd"
   xmlns="http://www.w3.org/2000/svg"
   xmlns:svg="http://www.w3.org/2000/svg">
  <defs
     id="defs1" />
  <sodipodi:namedview
     id="namedview1"
     pagecolor="#505050"
     bordercolor="#eeeeee"
     borderopacity="1"
     inkscape:showpageshadow="0"
     inkscape:pageopacity="0"
     inkscape:pagecheckerboard="0"
     inkscape:deskcolor="#505050"
     showgrid="false"
     inkscape:zoom="33.125"
     inkscape:cx="7.9849057"
     inkscape:cy="11.003774"
     inkscape:window-width="1920"
     inkscape:window-height="1013"
     inkscape:window-x="-9"
     inkscape:window-y="-9"
     inkscape:window-maximized="1"
     inkscape:current-layer="microphone" />
  <path
     style="baseline-shift:baseline;display:inline;overflow:visible;opacity:1;vector-effect:none;fill:currentColor;stroke-linecap:round;stroke-linejoin:round;enable-background:accumulate;stop-color:#000000;stop-opacity:1"
     d="M 8,0 C 6.939552,0 5.9217717,0.4219917 5.171875,1.171875 4.4220011,1.9217489 4,2.9395183 4,4 v 5 c 0,1.060448 0.421977,2.07824 1.171875,2.828125 C 5.9217584,12.577982 6.939527,13 8,13 9.060473,13 10.078254,12.577996 10.828125,11.828125 11.577996,11.078254 12,10.060473 12,9 V 4 C 12,2.9394932 11.577972,1.9217357 10.828125,1.171875 10.07824,0.421977 9.060448,0 8,0 Z M 8,2 C 8.530752,2 9.038747,2.2106155 9.414063,2.5859375 9.789415,2.9612968 10,3.4692068 10,4 V 9 C 10,9.530727 9.789391,10.038734 9.414063,10.414063 9.038734,10.789391 8.530727,11 8,11 7.469273,11 6.961294,10.789406 6.585938,10.414063 6.210616,10.038747 6,9.530752 6,9 V 4 C 6,3.4691817 6.210591,2.9612836 6.585938,2.5859375 6.961281,2.2106008 7.469248,2 8,2 Z M 1,8 A 1,1 0 0 0 0,9 c 0,2.121335 0.8437152,4.156272 2.34375,5.65625 C 3.5987131,15.911251 5.2587373,16.574457 7,16.800781 V 19 H 4 a 1,1 0 0 0 -1,1 1,1 0 0 0 1,1 h 4 4 a 1,1 0 0 0 1,-1 1,1 0 0 0 -1,-1 H 9 V 16.800781 C 10.741265,16.574457 12.401327,15.911269 13.65625,14.65625 15.156343,13.156271 16,11.121335 16,9 A 1,1 0 0 0 15,8 1,1 0 0 0 14,9 c 0,1.591665 -0.632306,3.116767 -1.757813,4.242188 C 11.116767,14.367694 9.591665,15 8,15 6.408335,15 4.8833055,14.367715 3.7578125,13.242188 2.6323473,12.116765 2,10.591665 2,9 A 1,1 0 0 0 1,8 Z"
     id="path1" />
</svg>
