<?xml version="1.0" encoding="UTF-8" standalone="no"?>
<svg
   width="18"
   height="20"
   viewBox="0 0 18 20"
   fill="none"
   id="trash"
   version="1.1"
   sodipodi:docname="trash.svg"
   inkscape:version="1.4.2 (f4327f4, 2025-05-13)"
   xmlns:inkscape="http://www.inkscape.org/namespaces/inkscape"
   xmlns:sodipodi="http://sodipodi.sourceforge.net/DTD/sodipodi-0.dtd"
   xmlns="http://www.w3.org/2000/svg"
   xmlns:svg="http://www.w3.org/2000/svg">
  <defs
     id="defs1" />
  <sodipodi:namedview
     id="namedview1"
     pagecolor="#505050"
     bordercolor="#eeeeee"
     borderopacity="1"
     inkscape:showpageshadow="0"
     inkscape:pageopacity="0"
     inkscape:pagecheckerboard="0"
     inkscape:deskcolor="#505050"
     showgrid="false"
     inkscape:zoom="33.125"
     inkscape:cx="9.0113208"
     inkscape:cy="10.007547"
     inkscape:window-width="1920"
     inkscape:window-height="1013"
     inkscape:window-x="-9"
     inkscape:window-y="-9"
     inkscape:window-maximized="1"
     inkscape:current-layer="trash" />
  <path
     style="baseline-shift:baseline;display:inline;overflow:visible;opacity:1;vector-effect:none;fill:currentColor;stroke-linecap:round;stroke-linejoin:round;enable-background:accumulate;stop-color:#000000;stop-opacity:1"
     d="M 7,0 C 6.4699433,0 5.9607276,0.2111673 5.5859375,0.5859375 5.2111673,0.9607276 5,1.4699433 5,2 V 4 H 1 A 1,1 0 0 0 0,5 1,1 0 0 0 1,6 H 1.080078 L 2.0039062,17.083984 2,17 c 0,0.795244 0.3165898,1.558747 0.8789062,2.121094 C 3.4412554,19.683488 4.2047534,20 5,20 h 8 c 0.795232,0 1.558739,-0.316551 2.121094,-0.878906 C 15.683449,18.558739 16,17.795232 16,17 L 15.9961,17.08398 16.919922,6 H 17 A 1,1 0 0 0 18,5 1,1 0 0 0 17,4 H 13 V 2 C 13,1.4698427 12.788716,0.9606711 12.414063,0.5859375 12.039201,0.2110163 11.530057,0 11,0 Z m 0,2 h 4 V 4 H 7 Z M 3.0859375,6 H 6 12 14.914062 L 14.003906,16.916016 A 1.0001,1.0001 0 0 0 14,17 c 0,0.265568 -0.105124,0.519186 -0.292969,0.707031 C 13.519186,17.894876 13.265568,18 13,18 H 5 C 4.7343866,18 4.4807596,17.894837 4.2929687,17.707031 4.1051252,17.519178 4,17.265556 4,17 A 1.0001,1.0001 0 0 0 3.99609,16.91602 Z M 7,8 A 1,1 0 0 0 6,9 v 6 a 1,1 0 0 0 1,1 1,1 0 0 0 1,-1 V 9 A 1,1 0 0 0 7,8 Z m 4,0 a 1,1 0 0 0 -1,1 v 6 a 1,1 0 0 0 1,1 1,1 0 0 0 1,-1 V 9 A 1,1 0 0 0 11,8 Z"
     id="path1" />
</svg>
