<?xml version="1.0" encoding="UTF-8" standalone="no"?>
<svg
   width="14"
   height="20"
   viewBox="0 0 14 20"
   fill="none"
   id="user"
   version="1.1"
   sodipodi:docname="user.svg"
   inkscape:version="1.4.2 (f4327f4, 2025-05-13)"
   xmlns:inkscape="http://www.inkscape.org/namespaces/inkscape"
   xmlns:sodipodi="http://sodipodi.sourceforge.net/DTD/sodipodi-0.dtd"
   xmlns="http://www.w3.org/2000/svg"
   xmlns:svg="http://www.w3.org/2000/svg">
  <defs
     id="defs1" />
  <sodipodi:namedview
     id="namedview1"
     pagecolor="#505050"
     bordercolor="#eeeeee"
     borderopacity="1"
     inkscape:showpageshadow="0"
     inkscape:pageopacity="0"
     inkscape:pagecheckerboard="0"
     inkscape:deskcolor="#505050"
     showgrid="false"
     inkscape:zoom="33.125"
     inkscape:cx="6.9886792"
     inkscape:cy="10.007547"
     inkscape:window-width="1920"
     inkscape:window-height="1013"
     inkscape:window-x="-9"
     inkscape:window-y="-9"
     inkscape:window-maximized="1"
     inkscape:current-layer="user" />
  <path
     style="baseline-shift:baseline;display:inline;overflow:visible;opacity:1;vector-effect:none;fill:currentColor;stroke-linecap:round;stroke-linejoin:round;enable-background:accumulate;stop-color:#000000;stop-opacity:1"
     d="M 7,0 C 5.674275,0 4.4022448,0.5274552 3.4648438,1.4648438 2.5274458,2.4022542 2,3.674297 2,5 2,6.325703 2.5274458,7.5977458 3.4648438,8.535156 4.4022558,9.472593 5.674293,10 7,10 8.325707,10 9.597773,9.472627 10.535156,8.535156 11.472642,7.5977332 12,6.3256841 12,5 12,3.6743159 11.472642,2.4022668 10.535156,1.4648438 9.597784,0.5274214 8.325725,0 7,0 Z M 7,2 C 7.796075,2 8.558266,2.3160486 9.121094,2.8789062 9.684008,3.4417832 10,4.2039441 10,5 10,5.7960559 9.684008,6.5582168 9.121094,7.1210938 8.558277,7.6839629 7.796093,8 7,8 6.203907,8 5.441794,7.6839967 4.8789063,7.1210938 4.3160242,6.5582042 4,5.796037 4,5 4,4.203963 4.3160242,3.4417958 4.8789063,2.8789062 5.441805,2.3160148 6.203925,2 7,2 Z M 5,12 C 3.6743159,12 2.4022668,12.527358 1.4648437,13.464844 0.5274214,14.402216 0,15.674275 0,17 v 2 a 1,1 0 0 0 1,1 1,1 0 0 0 1,-1 V 17 C 2,16.203925 2.3160486,15.441734 2.8789062,14.878906 3.4417832,14.315992 4.2039441,14 5,14 h 4 c 0.796093,0 1.558279,0.316016 2.121094,0.878906 C 11.683984,15.441721 12,16.203907 12,17 v 2 a 1,1 0 0 0 1,1 1,1 0 0 0 1,-1 V 17 C 14,15.674293 13.472666,14.402229 12.535156,13.464844 11.597771,12.527334 10.325707,12 9,12 Z"
     id="path1" />
</svg>
